<?xml version="1.0" encoding="utf-8"?>
<!-- Generator: Adobe Illustrator 18.0.0, SVG Export Plug-In . SVG Version: 6.00 Build 0)  -->
<!DOCTYPE svg PUBLIC "-//W3C//DTD SVG 1.1//EN" "http://www.w3.org/Graphics/SVG/1.1/DTD/svg11.dtd">
<svg version="1.1" id="Layer_1" xmlns="http://www.w3.org/2000/svg" xmlns:xlink="http://www.w3.org/1999/xlink" x="0px" y="0px"
	 viewBox="-664.3 0 1938.2 792" enable-background="new -664.3 0 1938.2 792" xml:space="preserve">
<path fill="#C6C6C6" d="M242.4,124.5l212.8,37c80.3,14,134.6,91.1,120.7,171.4l-37,212.8c-14,80.3-91.1,134.6-171.4,120.7l-212.8-37
	C74.4,615.4,20,538.2,34,457.9l37-212.8C84.9,164.8,162,110.5,242.4,124.5z"/>
<path fill="#E2E2E2" d="M350.8,214.3l63.7,29.8c73.9,34.5,106,123.2,71.5,197.1L456.2,505c-34.5,73.9-123.2,106-197.1,71.5
	l-63.7-29.8c-73.9-34.5-106-123.2-71.5-197.1l29.8-63.7C188.2,211.9,276.9,179.8,350.8,214.3z"/>
<path fill="#FFFFFF" d="M-522.7,122.8l1656.8,0.9c67.3,0.2,122.2,55.4,122,122.7l-0.9,300.9c-0.2,67.3-55.4,122.2-122.7,122
	l-1656.8-0.9c-67.3-0.2-122.2-55.4-122-122.7l0.9-300.9C-645.3,177.5-590,122.6-522.7,122.8z"/>
<defs>
	<filter id="Adobe_OpacityMaskFilter" filterUnits="userSpaceOnUse" x="-449.1" y="-360.6" width="1510.3" height="1510.3">
		<feColorMatrix  type="matrix" values="1 0 0 0 0  0 1 0 0 0  0 0 1 0 0  0 0 0 1 0"/>
	</filter>
</defs>
<mask maskUnits="userSpaceOnUse" x="-449.1" y="-360.6" width="1510.3" height="1510.3" id="SVGID_1_">
	<g filter="url(#Adobe_OpacityMaskFilter)">
		<rect x="-636.2" y="123.4" fill="#FFFFFF" width="1840.2" height="545.7"/>
	</g>
</mask>
<g mask="url(#SVGID_1_)">
	<path fill="#C2CECE" d="M-118.6-358.8L959.7-171.5c66.3,11.5,111.1,75.2,99.6,141.5L872,1048.3c-11.5,66.3-75.2,111.1-141.5,99.6
		L-347.7,960.6c-66.3-11.5-111.1-75.2-99.6-141.5L-260-259.2C-248.5-325.5-184.9-370.3-118.6-358.8z"/>
	<path fill="#F3ABAB" d="M219.3-98.2l520.5,243.5c60.9,28.5,87.5,101.7,59,162.6L555.3,828.4c-28.5,60.9-101.7,87.5-162.6,59
		l-520.5-243.5c-60.9-28.5-87.5-101.7-59-162.6L56.7-39.2C85.2-100.2,158.4-126.7,219.3-98.2z"/>
	<path fill="#F40F36" d="M410.4,179l126.5,150.8c43.2,51.5,36.5,129.1-15.1,172.4L371,628.7c-51.5,43.2-129.1,36.5-172.4-15.1
		L72.2,462.8c-43.2-51.5-36.5-129.1,15.1-172.4L238,164C289.6,120.7,367.1,127.5,410.4,179z"/>
</g>
</svg>
