<?xml version="1.0" encoding="utf-8"?>
<!-- Generator: Adobe Illustrator 18.0.0, SVG Export Plug-In . SVG Version: 6.00 Build 0)  -->
<!DOCTYPE svg PUBLIC "-//W3C//DTD SVG 1.1//EN" "http://www.w3.org/Graphics/SVG/1.1/DTD/svg11.dtd">
<svg version="1.1" id="Layer_1" xmlns="http://www.w3.org/2000/svg" xmlns:xlink="http://www.w3.org/1999/xlink" x="0px" y="0px"
	 viewBox="0 0 612 792" enable-background="new 0 0 612 792" xml:space="preserve">
<path fill="#FFFFFF" d="M142.3,97.7l326.8,1c73.1,0.2,132.7,60.2,132.5,133.3l-1,326.8c-0.2,73.1-60.2,132.7-133.3,132.5l-326.8-1
	C67.4,690.1,7.7,630.1,8,557l1-326.8C9.2,157.1,69.2,97.5,142.3,97.7z"/>
<path fill="#F3ABAB" d="M250.1,150l190.8,33.1c72,12.5,120.7,81.7,108.2,153.7l-33.1,190.8c-12.5,72-81.7,120.7-153.7,108.2
	l-190.8-33.1C99.4,590.2,50.7,521,63.2,449l33.1-190.8C108.9,186.2,178,137.5,250.1,150z"/>
<path fill="#F40F36" d="M347.2,230.6l57.1,26.7c66.2,31,95,110.5,64.1,176.7l-26.7,57.1c-31,66.2-110.5,95-176.7,64.1l-57.1-26.7
	c-66.2-31-95-110.5-64.1-176.7l26.7-57.1C201.5,228.5,281,199.6,347.2,230.6z"/>
</svg>
