<?xml version="1.0" encoding="utf-8"?>
<!-- Generator: Adobe Illustrator 18.0.0, SVG Export Plug-In . SVG Version: 6.00 Build 0)  -->
<!DOCTYPE svg PUBLIC "-//W3C//DTD SVG 1.1//EN" "http://www.w3.org/Graphics/SVG/1.1/DTD/svg11.dtd">
<svg version="1.1" id="Layer_1" xmlns="http://www.w3.org/2000/svg" xmlns:xlink="http://www.w3.org/1999/xlink" x="0px" y="0px"
	 viewBox="0 0 612 792" enable-background="new 0 0 612 792" xml:space="preserve">
<path fill="#C6C6C6" d="M242.4,124.5l212.8,37c80.3,14,134.6,91.1,120.7,171.4l-37,212.8c-14,80.3-91.1,134.6-171.4,120.7l-212.8-37
	C74.4,615.4,20,538.2,34,457.9l37-212.8C84.9,164.8,162,110.5,242.4,124.5z"/>
<path fill="#E2E2E2" d="M350.8,214.3l63.7,29.8c73.9,34.5,106,123.2,71.5,197.1L456.2,505c-34.5,73.9-123.2,106-197.1,71.5
	l-63.7-29.8c-73.9-34.5-106-123.2-71.5-197.1l29.8-63.7C188.2,211.9,276.9,179.8,350.8,214.3z"/>
</svg>
