<?xml version="1.0" encoding="utf-8"?>
<!-- Generator: Adobe Illustrator 18.0.0, SVG Export Plug-In . SVG Version: 6.00 Build 0)  -->
<!DOCTYPE svg PUBLIC "-//W3C//DTD SVG 1.1//EN" "http://www.w3.org/Graphics/SVG/1.1/DTD/svg11.dtd">
<svg version="1.1" id="Layer_1" xmlns="http://www.w3.org/2000/svg" xmlns:xlink="http://www.w3.org/1999/xlink" x="0px" y="0px"
	 viewBox="0 0 500 500" enable-background="new 0 0 500 500" xml:space="preserve">
<path fill="#333333" d="M114.5,92.3L412,92c6.6,0,12,5.4,12,12l0.3,297.5c0,6.6-5.4,12-12,12l-297.5,0.3c-6.6,0-12-5.4-12-12
	l-0.3-297.5C102.5,97.7,107.9,92.3,114.5,92.3z"/>
<path fill="#C6C6C6" d="M172.9,110.4L395,148c6.5,1.1,10.9,7.3,9.8,13.8l-37.6,222.1c-1.1,6.5-7.3,10.9-13.8,9.8l-222.1-37.6
	c-6.5-1.1-10.9-7.3-9.8-13.8l37.6-222.1C160.2,113.7,166.4,109.3,172.9,110.4z"/>
<path fill="#E2E2E2" d="M230.5,138.7l140.1,64.8c6,2.8,8.6,9.9,5.9,15.9l-64.8,140.1c-2.8,6-9.9,8.6-15.9,5.9l-140.1-64.8
	c-6-2.8-8.6-9.9-5.9-15.9l64.8-140.1C217.4,138.5,224.5,135.9,230.5,138.7z"/>
</svg>
